<svg width="271" height="113" viewBox="0 0 271 113" fill="none" xmlns="http://www.w3.org/2000/svg">
<path d="M267.8 138.16C266.38 138.16 265.24 137.01 265.24 135.6C265.24 63.8899 206.9 5.53992 135.18 5.53992C63.4601 5.53992 5.12006 63.8799 5.12006 135.6C5.12006 137.02 3.97006 138.16 2.56006 138.16C1.15006 138.16 0 137.01 0 135.6C0 61.0599 60.6401 0.419922 135.18 0.419922C209.72 0.419922 270.36 61.0599 270.36 135.6C270.36 137.02 269.21 138.16 267.8 138.16Z" fill="#FBF239"/>
<path d="M223.9 138.16C222.48 138.16 221.34 137.01 221.34 135.6C221.34 88.0898 182.69 49.4498 135.19 49.4498C87.6899 49.4498 49.0399 88.0998 49.0399 135.6C49.0399 137.02 47.8899 138.16 46.4799 138.16C45.0699 138.16 43.9199 137.01 43.9199 135.6C43.9199 85.2698 84.8699 44.3198 135.2 44.3198C185.53 44.3198 226.48 85.2698 226.48 135.6C226.48 137.02 225.33 138.16 223.92 138.16H223.9Z" fill="#ACEED6"/>
<path d="M185.26 138.16C183.84 138.16 182.7 137.01 182.7 135.6C182.7 109.4 161.38 88.08 135.18 88.08C108.98 88.08 87.66 109.4 87.66 135.6C87.66 137.02 86.51 138.16 85.1 138.16C83.69 138.16 82.54 137.01 82.54 135.6C82.54 106.57 106.16 82.95 135.19 82.95C164.22 82.95 187.84 106.57 187.84 135.6C187.84 137.02 186.69 138.16 185.28 138.16H185.26Z" fill="#FCFFFF"/>
</svg>
