<svg width="215" height="215" viewBox="0 0 215 215" fill="none" xmlns="http://www.w3.org/2000/svg">
<path d="M112.504 5.4336C112.504 8.43659 110.074 10.8672 107.071 10.8672C104.068 10.8672 101.637 8.43659 101.637 5.4336C101.637 2.4306 104.068 0 107.071 0C110.074 0 112.504 2.4306 112.504 5.4336Z" fill="#ACEED6"/>
<path d="M21.7676 51.5488C24.3641 53.0503 25.26 56.3686 23.7585 58.9651C22.257 61.5616 18.9305 62.4492 16.334 60.956C13.7375 59.4545 12.8415 56.1363 14.343 53.5398C15.8445 50.9433 19.1628 50.0556 21.7593 51.5488H21.7676Z" fill="#ACEED6"/>
<path d="M16.334 153.194C18.9305 151.693 22.257 152.58 23.7585 155.185C25.26 157.782 24.3641 161.108 21.7676 162.601C19.1711 164.103 15.8445 163.215 14.3513 160.61C12.8498 158.014 13.7458 154.687 16.3423 153.194H16.334Z" fill="#ACEED6"/>
<path d="M101.646 208.716C101.646 205.713 104.076 203.283 107.079 203.283C110.082 203.283 112.513 205.713 112.513 208.716C112.513 211.719 110.082 214.15 107.079 214.15C104.084 214.15 101.646 211.719 101.646 208.716Z" fill="#ACEED6"/>
<path d="M192.382 162.601C189.786 161.1 188.898 157.781 190.4 155.176C191.901 152.58 195.22 151.692 197.816 153.186C200.413 154.687 201.308 158.005 199.807 160.61C198.305 163.207 194.987 164.103 192.391 162.601H192.382Z" fill="#ACEED6"/>
<path d="M197.816 60.9556C195.219 62.4571 191.901 61.5612 190.4 58.9647C188.898 56.3682 189.786 53.0417 192.39 51.5485C194.987 50.047 198.313 50.9346 199.807 53.5394C201.308 56.1359 200.421 59.4541 197.816 60.9556Z" fill="#ACEED6"/>
<path d="M39.0474 31.3652C41.1711 33.4889 41.1711 36.9232 39.0474 39.0469C36.9237 41.1706 33.4894 41.1706 31.3657 39.0469C29.242 36.9232 29.242 33.4889 31.3657 31.3652C33.4894 29.2415 36.9237 29.2415 39.0474 31.3652Z" fill="#ACEED6"/>
<path d="M7.4912 128.133C10.3864 127.354 13.3728 129.079 14.1443 131.974C14.924 134.878 13.1986 137.856 10.3034 138.627C7.40826 139.407 4.43018 137.682 3.6504 134.786C2.87891 131.891 4.59605 128.913 7.4912 128.133Z" fill="#ACEED6"/>
<path d="M75.5229 203.847C76.2943 200.952 79.2725 199.226 82.1759 200.006C85.0711 200.778 86.7966 203.764 86.0168 206.659C85.237 209.554 82.2589 211.28 79.3637 210.5C76.4686 209.728 74.7431 206.742 75.5229 203.847Z" fill="#ACEED6"/>
<path d="M175.111 182.785C172.987 180.669 172.987 177.227 175.111 175.103C177.234 172.979 180.669 172.979 182.793 175.103C184.916 177.227 184.916 180.661 182.793 182.785C180.677 184.908 177.234 184.908 175.111 182.785Z" fill="#ACEED6"/>
<path d="M206.659 86.0166C203.764 86.7964 200.786 85.0709 200.006 82.1758C199.226 79.2806 200.951 76.3025 203.847 75.5227C206.742 74.7512 209.72 76.4684 210.5 79.3636C211.279 82.2587 209.562 85.2368 206.659 86.0166Z" fill="#ACEED6"/>
<path d="M138.635 10.3029C137.864 13.198 134.878 14.9152 131.982 14.1437C129.087 13.3722 127.362 10.3858 128.142 7.49066C128.913 4.59551 131.891 2.87003 134.795 3.64981C137.69 4.4213 139.415 7.39941 138.635 10.3029Z" fill="#ACEED6"/>
<path d="M60.8316 16.4001C62.3331 18.9966 61.4455 22.3231 58.8573 23.8246C56.2607 25.3261 52.9342 24.4468 51.4327 21.8503C49.9312 19.2538 50.8105 15.9273 53.4071 14.4258C56.0036 12.9243 59.3301 13.8119 60.8316 16.4001Z" fill="#ACEED6"/>
<path d="M5.42528 101.787C8.42828 101.787 10.8589 104.209 10.8672 107.212C10.8672 110.215 8.43659 112.646 5.44189 112.654C2.43889 112.654 0.00829556 110.232 0 107.229C0 104.226 2.42229 101.795 5.42528 101.787Z" fill="#ACEED6"/>
<path d="M51.6649 192.457C53.1581 189.86 56.4846 188.964 59.0811 190.458C61.6776 191.951 62.5736 195.277 61.0804 197.874C59.5872 200.479 56.2607 201.366 53.6641 199.873C51.0676 198.38 50.1717 195.053 51.6649 192.457Z" fill="#ACEED6"/>
<path d="M153.319 197.75C151.817 195.153 152.705 191.827 155.301 190.325C157.898 188.824 161.224 189.712 162.726 192.308C164.227 194.905 163.348 198.231 160.743 199.733C158.147 201.234 154.829 200.346 153.319 197.758V197.75Z" fill="#ACEED6"/>
<path d="M208.725 112.363C205.722 112.363 203.291 109.941 203.283 106.938C203.283 103.935 205.705 101.504 208.708 101.496C211.711 101.496 214.142 103.918 214.15 106.921C214.15 109.924 211.728 112.355 208.725 112.363Z" fill="#ACEED6"/>
<path d="M162.485 21.6927C160.992 24.2892 157.666 25.1851 155.069 23.6919C152.464 22.1987 151.577 18.8722 153.07 16.2757C154.563 13.6792 157.89 12.7833 160.486 14.2765C163.083 15.7697 163.979 19.0879 162.485 21.6927Z" fill="#ACEED6"/>
<path d="M10.2614 75.6559C13.1565 76.4274 14.882 79.4055 14.1105 82.3007C13.339 85.1958 10.3609 86.9213 7.46577 86.1498C4.57062 85.3783 2.84513 82.4002 3.61661 79.5051C4.3881 76.6099 7.36623 74.8844 10.2697 75.6559H10.2614Z" fill="#ACEED6"/>
<path d="M31.4568 175.211C33.5721 173.087 37.0148 173.087 39.1385 175.203C41.2621 177.318 41.2621 180.761 39.1468 182.884C37.0314 185.008 33.5887 185.016 31.4651 182.893C29.3414 180.777 29.3331 177.335 31.4568 175.211Z" fill="#ACEED6"/>
<path d="M128.274 206.626C127.495 203.731 129.212 200.744 132.107 199.964C135.002 199.185 137.989 200.902 138.76 203.797C139.54 206.692 137.823 209.678 134.927 210.458C132.032 211.238 129.046 209.521 128.266 206.626H128.274Z" fill="#ACEED6"/>
<path d="M203.897 138.495C201.002 137.723 199.276 134.745 200.048 131.841C200.819 128.946 203.797 127.221 206.692 127.992C209.588 128.764 211.313 131.742 210.542 134.637C209.77 137.532 206.792 139.258 203.897 138.486V138.495Z" fill="#ACEED6"/>
<path d="M182.693 38.939C180.578 41.0627 177.135 41.0627 175.011 38.9473C172.888 36.8319 172.88 33.3893 175.003 31.2656C177.119 29.1419 180.561 29.1336 182.685 31.2573C184.808 33.3727 184.817 36.8153 182.693 38.939Z" fill="#ACEED6"/>
<path d="M85.884 7.51542C86.6638 10.4106 84.9466 13.3887 82.0515 14.1685C79.1563 14.9483 76.1782 13.2311 75.3985 10.3359C74.6187 7.44076 76.3358 4.46266 79.231 3.68287C82.1261 2.90309 85.1042 4.62027 85.884 7.51542Z" fill="#ACEED6"/>
<path d="M112.504 5.4336C112.504 8.43659 110.074 10.8672 107.071 10.8672C104.068 10.8672 101.637 8.43659 101.637 5.4336C101.637 2.4306 104.068 0 107.071 0C110.074 0 112.504 2.4306 112.504 5.4336Z" fill="#ACEED6"/>
<path d="M21.7676 51.5488C24.3641 53.0503 25.26 56.3686 23.7585 58.9651C22.257 61.5616 18.9305 62.4492 16.334 60.956C13.7375 59.4545 12.8415 56.1363 14.343 53.5398C15.8445 50.9433 19.1628 50.0556 21.7593 51.5488H21.7676Z" fill="#ACEED6"/>
<path d="M16.334 153.194C18.9305 151.693 22.257 152.58 23.7585 155.185C25.26 157.782 24.3641 161.108 21.7676 162.601C19.1711 164.103 15.8445 163.215 14.3513 160.61C12.8498 158.014 13.7458 154.687 16.3423 153.194H16.334Z" fill="#ACEED6"/>
<path d="M101.646 208.716C101.646 205.713 104.076 203.283 107.079 203.283C110.082 203.283 112.513 205.713 112.513 208.716C112.513 211.719 110.082 214.15 107.079 214.15C104.084 214.15 101.646 211.719 101.646 208.716Z" fill="#ACEED6"/>
<path d="M192.382 162.601C189.786 161.1 188.898 157.781 190.4 155.176C191.901 152.58 195.22 151.692 197.816 153.186C200.413 154.687 201.308 158.005 199.807 160.61C198.305 163.207 194.987 164.103 192.391 162.601H192.382Z" fill="#ACEED6"/>
<path d="M197.816 60.9556C195.219 62.4571 191.901 61.5612 190.4 58.9647C188.898 56.3682 189.786 53.0417 192.39 51.5485C194.987 50.047 198.313 50.9346 199.807 53.5394C201.308 56.1359 200.421 59.4541 197.816 60.9556Z" fill="#ACEED6"/>
<path d="M39.0474 31.3652C41.1711 33.4889 41.1711 36.9232 39.0474 39.0469C36.9237 41.1706 33.4894 41.1706 31.3657 39.0469C29.242 36.9232 29.242 33.4889 31.3657 31.3652C33.4894 29.2415 36.9237 29.2415 39.0474 31.3652Z" fill="#ACEED6"/>
<path d="M7.4912 128.133C10.3864 127.354 13.3728 129.079 14.1443 131.974C14.924 134.878 13.1986 137.856 10.3034 138.627C7.40826 139.407 4.43018 137.682 3.6504 134.786C2.87891 131.891 4.59605 128.913 7.4912 128.133Z" fill="#ACEED6"/>
<path d="M75.5229 203.847C76.2943 200.952 79.2725 199.226 82.1759 200.006C85.0711 200.778 86.7966 203.764 86.0168 206.659C85.237 209.554 82.2589 211.28 79.3637 210.5C76.4686 209.728 74.7431 206.742 75.5229 203.847Z" fill="#ACEED6"/>
<path d="M175.111 182.785C172.987 180.669 172.987 177.227 175.111 175.103C177.234 172.979 180.669 172.979 182.793 175.103C184.916 177.227 184.916 180.661 182.793 182.785C180.677 184.908 177.234 184.908 175.111 182.785Z" fill="#ACEED6"/>
<path d="M206.659 86.0166C203.764 86.7964 200.786 85.0709 200.006 82.1758C199.226 79.2806 200.951 76.3025 203.847 75.5227C206.742 74.7512 209.72 76.4684 210.5 79.3636C211.279 82.2587 209.562 85.2368 206.659 86.0166Z" fill="#ACEED6"/>
<path d="M138.635 10.3029C137.864 13.198 134.878 14.9152 131.982 14.1437C129.087 13.3722 127.362 10.3858 128.142 7.49066C128.913 4.59551 131.891 2.87003 134.795 3.64981C137.69 4.4213 139.415 7.39941 138.635 10.3029Z" fill="#ACEED6"/>
<path d="M60.8316 16.4001C62.3331 18.9966 61.4455 22.3231 58.8573 23.8246C56.2607 25.3261 52.9342 24.4468 51.4327 21.8503C49.9312 19.2538 50.8105 15.9273 53.4071 14.4258C56.0036 12.9243 59.3301 13.8119 60.8316 16.4001Z" fill="#ACEED6"/>
<path d="M5.42528 101.787C8.42828 101.787 10.8589 104.209 10.8672 107.212C10.8672 110.215 8.43659 112.646 5.44189 112.654C2.43889 112.654 0.00829556 110.232 0 107.229C0 104.226 2.42229 101.795 5.42528 101.787Z" fill="#ACEED6"/>
<path d="M51.6649 192.457C53.1581 189.86 56.4846 188.964 59.0811 190.458C61.6776 191.951 62.5736 195.277 61.0804 197.874C59.5872 200.479 56.2607 201.366 53.6641 199.873C51.0676 198.38 50.1717 195.053 51.6649 192.457Z" fill="#ACEED6"/>
<path d="M153.319 197.75C151.817 195.153 152.705 191.827 155.301 190.325C157.898 188.824 161.224 189.712 162.726 192.308C164.227 194.905 163.348 198.231 160.743 199.733C158.147 201.234 154.829 200.346 153.319 197.758V197.75Z" fill="#ACEED6"/>
<path d="M208.725 112.363C205.722 112.363 203.291 109.941 203.283 106.938C203.283 103.935 205.705 101.504 208.708 101.496C211.711 101.496 214.142 103.918 214.15 106.921C214.15 109.924 211.728 112.355 208.725 112.363Z" fill="#ACEED6"/>
<path d="M162.485 21.6927C160.992 24.2892 157.666 25.1851 155.069 23.6919C152.464 22.1987 151.577 18.8722 153.07 16.2757C154.563 13.6792 157.89 12.7833 160.486 14.2765C163.083 15.7697 163.979 19.0879 162.485 21.6927Z" fill="#ACEED6"/>
<path d="M10.2614 75.6559C13.1565 76.4274 14.882 79.4055 14.1105 82.3007C13.339 85.1958 10.3609 86.9213 7.46577 86.1498C4.57062 85.3783 2.84513 82.4002 3.61661 79.5051C4.3881 76.6099 7.36623 74.8844 10.2697 75.6559H10.2614Z" fill="#ACEED6"/>
<path d="M31.4568 175.211C33.5721 173.087 37.0148 173.087 39.1385 175.203C41.2621 177.318 41.2621 180.761 39.1468 182.884C37.0314 185.008 33.5887 185.016 31.4651 182.893C29.3414 180.777 29.3331 177.335 31.4568 175.211Z" fill="#ACEED6"/>
<path d="M128.274 206.626C127.495 203.731 129.212 200.744 132.107 199.964C135.002 199.185 137.989 200.902 138.76 203.797C139.54 206.692 137.823 209.678 134.927 210.458C132.032 211.238 129.046 209.521 128.266 206.626H128.274Z" fill="#ACEED6"/>
<path d="M203.897 138.495C201.002 137.723 199.276 134.745 200.048 131.841C200.819 128.946 203.797 127.221 206.692 127.992C209.588 128.764 211.313 131.742 210.542 134.637C209.77 137.532 206.792 139.258 203.897 138.486V138.495Z" fill="#ACEED6"/>
<path d="M182.693 38.939C180.578 41.0627 177.135 41.0627 175.011 38.9473C172.888 36.8319 172.88 33.3893 175.003 31.2656C177.119 29.1419 180.561 29.1336 182.685 31.2573C184.808 33.3727 184.817 36.8153 182.693 38.939Z" fill="#ACEED6"/>
<path d="M85.884 7.51542C86.6638 10.4106 84.9466 13.3887 82.0515 14.1685C79.1563 14.9483 76.1782 13.2311 75.3985 10.3359C74.6187 7.44076 76.3358 4.46266 79.231 3.68287C82.1261 2.90309 85.1042 4.62027 85.884 7.51542Z" fill="#ACEED6"/>
<path d="M111.327 27.5662C111.327 29.9138 109.427 31.8135 107.079 31.8135C104.732 31.8135 102.832 29.9138 102.832 27.5662C102.832 25.2185 104.732 23.3188 107.079 23.3188C109.427 23.3188 111.327 25.2185 111.327 27.5662Z" fill="#ACEED6"/>
<path d="M40.3414 63.6434C42.3738 64.8131 43.0706 67.4179 41.8927 69.4503C40.723 71.4827 38.1182 72.1795 36.0858 71.0015C34.0534 69.8319 33.3565 67.2271 34.5345 65.1947C35.7042 63.1622 38.309 62.4654 40.3414 63.6434Z" fill="#ACEED6"/>
<path d="M36.0938 143.148C38.1262 141.979 40.7227 142.667 41.9007 144.7C43.0787 146.732 42.3818 149.328 40.3494 150.506C38.317 151.676 35.7205 150.988 34.5425 148.947C33.3729 146.914 34.0614 144.318 36.0938 143.148Z" fill="#ACEED6"/>
<path d="M102.832 186.584C102.832 184.237 104.732 182.337 107.079 182.337C109.427 182.337 111.327 184.237 111.327 186.584C111.327 188.932 109.427 190.832 107.079 190.832C104.732 190.832 102.832 188.932 102.832 186.584Z" fill="#ACEED6"/>
<path d="M173.809 150.506C171.776 149.337 171.08 146.732 172.258 144.699C173.427 142.667 176.032 141.97 178.056 143.148C180.089 144.318 180.785 146.923 179.608 148.955C178.438 150.987 175.833 151.684 173.801 150.506H173.809Z" fill="#ACEED6"/>
<path d="M178.056 71.002C176.024 72.1799 173.427 71.4831 172.249 69.4424C171.071 67.41 171.768 64.8135 173.801 63.6355C175.833 62.4658 178.43 63.1543 179.608 65.1951C180.785 67.2275 180.089 69.824 178.056 70.9937V71.002Z" fill="#ACEED6"/>
<path d="M53.8631 47.8491C55.5222 49.5082 55.5222 52.1959 53.8631 53.8551C52.204 55.5142 49.5162 55.5142 47.8571 53.8551C46.198 52.1959 46.198 49.5082 47.8571 47.8491C49.5162 46.19 52.204 46.19 53.8631 47.8491Z" fill="#ACEED6"/>
<path d="M29.1755 123.546C31.4402 122.94 33.7713 124.284 34.3769 126.549C34.9824 128.813 33.6386 131.144 31.3739 131.75C29.1092 132.355 26.7781 131.012 26.1725 128.747C25.567 126.482 26.9108 124.151 29.1755 123.537V123.546Z" fill="#ACEED6"/>
<path d="M82.3918 182.776C82.9974 180.511 85.3284 179.168 87.5931 179.773C89.8578 180.379 91.2017 182.71 90.5961 184.974C89.9905 187.239 87.6595 188.583 85.3948 187.977C83.1301 187.372 81.7862 185.041 82.3918 182.776Z" fill="#ACEED6"/>
<path d="M160.295 166.302C158.636 164.642 158.636 161.955 160.295 160.287C161.954 158.628 164.642 158.628 166.301 160.287C167.96 161.946 167.96 164.634 166.301 166.293C164.642 167.952 161.954 167.952 160.295 166.293V166.302Z" fill="#ACEED6"/>
<path d="M184.974 90.6042C182.71 91.2097 180.379 89.8658 179.773 87.6012C179.168 85.3365 180.511 83.0054 182.776 82.3998C185.041 81.7943 187.372 83.1381 187.977 85.4028C188.591 87.6675 187.239 89.9986 184.974 90.6042Z" fill="#ACEED6"/>
<path d="M131.759 31.3736C131.153 33.6383 128.822 34.9822 126.557 34.3766C124.293 33.771 122.949 31.44 123.554 29.1753C124.16 26.9106 126.491 25.5667 128.756 26.1723C131.02 26.7779 132.364 29.1089 131.759 31.3736Z" fill="#ACEED6"/>
<path d="M70.9024 36.1441C72.0804 38.1765 71.3836 40.773 69.3595 41.951C67.327 43.129 64.7305 42.4322 63.5526 40.3997C62.3746 38.3673 63.0714 35.7708 65.1038 34.5928C67.1362 33.4149 69.7328 34.1117 70.9107 36.1441H70.9024Z" fill="#ACEED6"/>
<path d="M27.5662 102.931C29.9138 102.931 31.8218 104.831 31.8218 107.17C31.8218 109.518 29.9221 111.426 27.5828 111.426C25.2351 111.426 23.3271 109.526 23.3271 107.187C23.3271 104.839 25.2268 102.939 27.5745 102.931H27.5662Z" fill="#ACEED6"/>
<path d="M63.7348 173.867C64.9045 171.835 67.501 171.13 69.5334 172.299C71.5658 173.469 72.271 176.066 71.093 178.106C69.9233 180.139 67.3268 180.835 65.2944 179.666C63.262 178.496 62.5652 175.9 63.7265 173.867H63.7348Z" fill="#ACEED6"/>
<path d="M143.248 178.007C142.07 175.983 142.767 173.378 144.799 172.2C146.832 171.022 149.428 171.719 150.606 173.743C151.784 175.775 151.087 178.372 149.055 179.55C147.022 180.728 144.426 180.031 143.248 178.007Z" fill="#ACEED6"/>
<path d="M186.593 111.21C184.245 111.21 182.345 109.311 182.337 106.971C182.337 104.624 184.237 102.716 186.576 102.716C188.924 102.716 190.832 104.615 190.832 106.955C190.832 109.302 188.932 111.202 186.584 111.21H186.593Z" fill="#ACEED6"/>
<path d="M150.423 40.2831C149.254 42.3156 146.657 43.0124 144.617 41.8427C142.584 40.673 141.887 38.0765 143.057 36.0441C144.227 34.0117 146.823 33.3066 148.864 34.4845C150.896 35.6542 151.593 38.2507 150.423 40.2831Z" fill="#ACEED6"/>
<path d="M31.341 82.4996C33.6057 83.1052 34.9579 85.4362 34.3523 87.7009C33.7467 89.9656 31.424 91.3178 29.151 90.7122C26.8863 90.1066 25.5342 87.7839 26.1397 85.5109C26.7453 83.2462 29.068 81.894 31.341 82.4996Z" fill="#ACEED6"/>
<path d="M47.9233 160.37C49.5824 158.711 52.2702 158.702 53.9293 160.37C55.5884 162.029 55.5967 164.717 53.9376 166.376C52.2785 168.035 49.5907 168.043 47.9316 166.376C46.2725 164.717 46.2642 162.029 47.9233 160.37Z" fill="#ACEED6"/>
<path d="M123.662 184.95C123.048 182.685 124.392 180.354 126.657 179.74C128.922 179.135 131.253 180.47 131.867 182.743C132.481 185.008 131.137 187.339 128.872 187.953C126.607 188.567 124.276 187.223 123.662 184.958V184.95Z" fill="#ACEED6"/>
<path d="M182.81 131.65C180.545 131.045 179.193 128.722 179.798 126.449C180.404 124.176 182.727 122.832 185 123.438C187.264 124.043 188.617 126.366 188.011 128.639C187.405 130.904 185.083 132.256 182.81 131.65Z" fill="#ACEED6"/>
<path d="M166.227 53.7805C164.576 55.4397 161.88 55.4479 160.221 53.7805C158.553 52.1214 158.553 49.4337 160.213 47.7745C161.872 46.1154 164.559 46.1071 166.219 47.7745C167.878 49.4254 167.886 52.1214 166.219 53.7805H166.227Z" fill="#ACEED6"/>
<path d="M90.4964 29.2005C91.1103 31.4651 89.7664 33.7962 87.5017 34.4101C85.237 35.0239 82.906 33.6801 82.2922 31.4154C81.6783 29.1507 83.0222 26.8196 85.2951 26.2058C87.5598 25.5919 89.8908 26.9358 90.4964 29.2005Z" fill="#ACEED6"/>
<path d="M111.327 27.5662C111.327 29.9138 109.427 31.8135 107.079 31.8135C104.732 31.8135 102.832 29.9138 102.832 27.5662C102.832 25.2185 104.732 23.3188 107.079 23.3188C109.427 23.3188 111.327 25.2185 111.327 27.5662Z" fill="#ACEED6"/>
<path d="M40.3414 63.6434C42.3738 64.8131 43.0706 67.4179 41.8927 69.4503C40.723 71.4827 38.1182 72.1795 36.0858 71.0015C34.0534 69.8319 33.3565 67.2271 34.5345 65.1947C35.7042 63.1622 38.309 62.4654 40.3414 63.6434Z" fill="#ACEED6"/>
<path d="M36.0938 143.148C38.1262 141.979 40.7227 142.667 41.9007 144.7C43.0787 146.732 42.3818 149.328 40.3494 150.506C38.317 151.676 35.7205 150.988 34.5425 148.947C33.3729 146.914 34.0614 144.318 36.0938 143.148Z" fill="#ACEED6"/>
<path d="M102.832 186.584C102.832 184.237 104.732 182.337 107.079 182.337C109.427 182.337 111.327 184.237 111.327 186.584C111.327 188.932 109.427 190.832 107.079 190.832C104.732 190.832 102.832 188.932 102.832 186.584Z" fill="#ACEED6"/>
<path d="M173.809 150.506C171.776 149.337 171.08 146.732 172.258 144.699C173.427 142.667 176.032 141.97 178.056 143.148C180.089 144.318 180.785 146.923 179.608 148.955C178.438 150.987 175.833 151.684 173.801 150.506H173.809Z" fill="#ACEED6"/>
<path d="M178.056 71.002C176.024 72.1799 173.427 71.4831 172.249 69.4424C171.071 67.41 171.768 64.8135 173.801 63.6355C175.833 62.4658 178.43 63.1543 179.608 65.1951C180.785 67.2275 180.089 69.824 178.056 70.9937V71.002Z" fill="#ACEED6"/>
<path d="M53.8631 47.8491C55.5222 49.5082 55.5222 52.1959 53.8631 53.8551C52.204 55.5142 49.5162 55.5142 47.8571 53.8551C46.198 52.1959 46.198 49.5082 47.8571 47.8491C49.5162 46.19 52.204 46.19 53.8631 47.8491Z" fill="#ACEED6"/>
<path d="M29.1755 123.546C31.4402 122.94 33.7713 124.284 34.3769 126.549C34.9824 128.813 33.6386 131.144 31.3739 131.75C29.1092 132.355 26.7781 131.012 26.1725 128.747C25.567 126.482 26.9108 124.151 29.1755 123.537V123.546Z" fill="#ACEED6"/>
<path d="M82.3918 182.776C82.9974 180.511 85.3284 179.168 87.5931 179.773C89.8578 180.379 91.2017 182.71 90.5961 184.974C89.9905 187.239 87.6595 188.583 85.3948 187.977C83.1301 187.372 81.7862 185.041 82.3918 182.776Z" fill="#ACEED6"/>
<path d="M160.295 166.302C158.636 164.642 158.636 161.955 160.295 160.287C161.954 158.628 164.642 158.628 166.301 160.287C167.96 161.946 167.96 164.634 166.301 166.293C164.642 167.952 161.954 167.952 160.295 166.293V166.302Z" fill="#ACEED6"/>
<path d="M184.974 90.6042C182.71 91.2097 180.379 89.8658 179.773 87.6012C179.168 85.3365 180.511 83.0054 182.776 82.3998C185.041 81.7943 187.372 83.1381 187.977 85.4028C188.591 87.6675 187.239 89.9986 184.974 90.6042Z" fill="#ACEED6"/>
<path d="M131.759 31.3736C131.153 33.6383 128.822 34.9822 126.557 34.3766C124.293 33.771 122.949 31.44 123.554 29.1753C124.16 26.9106 126.491 25.5667 128.756 26.1723C131.02 26.7779 132.364 29.1089 131.759 31.3736Z" fill="#ACEED6"/>
<path d="M70.9024 36.1441C72.0804 38.1765 71.3836 40.773 69.3595 41.951C67.327 43.129 64.7305 42.4322 63.5526 40.3997C62.3746 38.3673 63.0714 35.7708 65.1038 34.5928C67.1362 33.4149 69.7328 34.1117 70.9107 36.1441H70.9024Z" fill="#ACEED6"/>
<path d="M27.5662 102.931C29.9138 102.931 31.8218 104.831 31.8218 107.17C31.8218 109.518 29.9221 111.426 27.5828 111.426C25.2351 111.426 23.3271 109.526 23.3271 107.187C23.3271 104.839 25.2268 102.939 27.5745 102.931H27.5662Z" fill="#ACEED6"/>
<path d="M63.7348 173.867C64.9045 171.835 67.501 171.13 69.5334 172.299C71.5658 173.469 72.271 176.066 71.093 178.106C69.9233 180.139 67.3268 180.835 65.2944 179.666C63.262 178.496 62.5652 175.9 63.7265 173.867H63.7348Z" fill="#ACEED6"/>
<path d="M143.248 178.007C142.07 175.983 142.767 173.378 144.799 172.2C146.832 171.022 149.428 171.719 150.606 173.743C151.784 175.775 151.087 178.372 149.055 179.55C147.022 180.728 144.426 180.031 143.248 178.007Z" fill="#ACEED6"/>
<path d="M186.593 111.21C184.245 111.21 182.345 109.311 182.337 106.971C182.337 104.624 184.237 102.716 186.576 102.716C188.924 102.716 190.832 104.615 190.832 106.955C190.832 109.302 188.932 111.202 186.584 111.21H186.593Z" fill="#ACEED6"/>
<path d="M150.423 40.2831C149.254 42.3156 146.657 43.0124 144.617 41.8427C142.584 40.673 141.887 38.0765 143.057 36.0441C144.227 34.0117 146.823 33.3066 148.864 34.4845C150.896 35.6542 151.593 38.2507 150.423 40.2831Z" fill="#ACEED6"/>
<path d="M31.341 82.4996C33.6057 83.1052 34.9579 85.4362 34.3523 87.7009C33.7467 89.9656 31.424 91.3178 29.151 90.7122C26.8863 90.1066 25.5342 87.7839 26.1397 85.5109C26.7453 83.2462 29.068 81.894 31.341 82.4996Z" fill="#ACEED6"/>
<path d="M47.9233 160.37C49.5824 158.711 52.2702 158.702 53.9293 160.37C55.5884 162.029 55.5967 164.717 53.9376 166.376C52.2785 168.035 49.5907 168.043 47.9316 166.376C46.2725 164.717 46.2642 162.029 47.9233 160.37Z" fill="#ACEED6"/>
<path d="M123.662 184.95C123.048 182.685 124.392 180.354 126.657 179.74C128.922 179.135 131.253 180.47 131.867 182.743C132.481 185.008 131.137 187.339 128.872 187.953C126.607 188.567 124.276 187.223 123.662 184.958V184.95Z" fill="#ACEED6"/>
<path d="M182.81 131.65C180.545 131.045 179.193 128.722 179.798 126.449C180.404 124.176 182.727 122.832 185 123.438C187.264 124.043 188.617 126.366 188.011 128.639C187.405 130.904 185.083 132.256 182.81 131.65Z" fill="#ACEED6"/>
<path d="M166.227 53.7805C164.576 55.4397 161.88 55.4479 160.221 53.7805C158.553 52.1214 158.553 49.4337 160.213 47.7745C161.872 46.1154 164.559 46.1071 166.219 47.7745C167.878 49.4254 167.886 52.1214 166.219 53.7805H166.227Z" fill="#ACEED6"/>
<path d="M90.4964 29.2005C91.1103 31.4651 89.7664 33.7962 87.5017 34.4101C85.237 35.0239 82.906 33.6801 82.2922 31.4154C81.6783 29.1507 83.0222 26.8196 85.2951 26.2058C87.5598 25.5919 89.8908 26.9358 90.4964 29.2005Z" fill="#ACEED6"/>
</svg>
