<svg width="35" height="35" viewBox="0 0 35 35" fill="none" xmlns="http://www.w3.org/2000/svg">
<g clip-path="url(#clip0_4211_8852)">
<path d="M27.9702 34.97C26.1002 34.97 24.3402 34.24 23.0202 32.92L17.4802 27.38L11.9402 32.92C9.21017 35.65 4.77018 35.65 2.04018 32.92C-0.689824 30.19 -0.689824 25.75 2.04018 23.02L7.58018 17.48L2.04018 11.94C-0.679824 9.22 -0.679824 4.78 2.05018 2.05C4.78018 -0.68 9.22017 -0.68 11.9502 2.05L17.4902 7.59L23.0302 2.05C24.3502 0.73 26.1102 0 27.9802 0C29.8502 0 31.6102 0.73 32.9302 2.05C35.6602 4.78 35.6602 9.22 32.9302 11.95L27.3902 17.49L32.9302 23.03C34.2502 24.35 34.9802 26.11 34.9802 27.98C34.9802 29.85 34.2502 31.61 32.9302 32.93C31.6102 34.25 29.8502 34.98 27.9802 34.98L27.9702 34.97ZM17.4802 24.97C17.7402 24.97 17.9902 25.07 18.1902 25.26L24.4402 31.51C25.3802 32.45 26.6402 32.97 27.9702 32.97C29.3002 32.97 30.5602 32.45 31.5002 31.51C32.4402 30.57 32.9602 29.31 32.9602 27.98C32.9602 26.65 32.4402 25.39 31.5002 24.45L25.2502 18.2C24.8602 17.81 24.8602 17.18 25.2502 16.79L31.5002 10.54C33.4502 8.59 33.4502 5.42 31.5002 3.47C30.5602 2.53 29.3002 2.01 27.9702 2.01C26.6402 2.01 25.3802 2.53 24.4402 3.47L18.1902 9.72C17.8002 10.11 17.1702 10.11 16.7802 9.72L10.5302 3.47C8.58018 1.52 5.41018 1.52 3.46018 3.47C1.51018 5.42 1.51018 8.59 3.46018 10.54L9.71018 16.79C9.90018 16.98 10.0002 17.23 10.0002 17.5C10.0002 17.77 9.89018 18.02 9.71018 18.21L3.46018 24.46C1.51018 26.41 1.51018 29.58 3.46018 31.53C5.41018 33.48 8.58018 33.48 10.5302 31.53L16.7802 25.28C16.9802 25.08 17.2302 24.99 17.4902 24.99L17.4802 24.97Z" fill="#ACEED6"/>
</g>
<defs>
<clipPath id="clip0_4211_8852">
<rect width="34.97" height="34.97" fill="white"/>
</clipPath>
</defs>
</svg>
