<svg width="99" height="99" viewBox="0 0 99 99" fill="none" xmlns="http://www.w3.org/2000/svg">
<g clip-path="url(#clip0_4211_8844)">
<path d="M79.5601 98.62C74.4701 98.62 69.6901 96.64 66.0901 93.04L49.3001 76.25L32.5101 93.04C25.0801 100.47 13.0001 100.47 5.57006 93.04C-1.85994 85.61 -1.85994 73.53 5.57006 66.1L22.3601 49.31L5.57006 32.52C-1.85994 25.09 -1.85994 13.01 5.57006 5.58C13.0001 -1.85 25.0801 -1.85 32.5101 5.58L49.3001 22.37L66.0901 5.58C69.6901 1.98 74.4701 0 79.5601 0C84.6501 0 89.4301 1.98 93.0301 5.58C96.6301 9.18 98.6101 13.96 98.6101 19.05C98.6101 24.14 96.6301 28.92 93.0301 32.52L76.2401 49.31L93.0301 66.1C96.6301 69.7 98.6101 74.48 98.6101 79.57C98.6101 84.66 96.6301 89.44 93.0301 93.04C89.4301 96.64 84.6501 98.62 79.5601 98.62ZM49.3001 72.05C49.7501 72.05 50.1901 72.22 50.5301 72.56L68.5501 90.58C71.4901 93.52 75.4001 95.14 79.5601 95.14C83.7201 95.14 87.6301 93.52 90.5701 90.58C93.5101 87.64 95.1301 83.73 95.1301 79.57C95.1301 75.41 93.5101 71.5 90.5701 68.56L72.5501 50.54C72.2201 50.21 72.0401 49.77 72.0401 49.31C72.0401 48.85 72.2201 48.41 72.5501 48.08L90.5701 30.06C93.5101 27.12 95.1301 23.21 95.1301 19.05C95.1301 14.89 93.5101 10.98 90.5701 8.04C87.6301 5.1 83.7201 3.48 79.5601 3.48C75.4001 3.48 71.4901 5.1 68.5501 8.04L50.5301 26.06C49.8501 26.74 48.7501 26.74 48.0701 26.06L30.0501 8.04C23.9801 1.97 14.1001 1.97 8.03006 8.04C1.96006 14.11 1.96006 23.99 8.03006 30.06L26.0501 48.08C26.7301 48.76 26.7301 49.86 26.0501 50.54L8.03006 68.56C1.96006 74.63 1.96006 84.51 8.03006 90.58C14.1001 96.65 23.9801 96.65 30.0501 90.58L48.0701 72.56C48.4101 72.22 48.8601 72.05 49.3001 72.05Z" fill="#FBF239"/>
</g>
<defs>
<clipPath id="clip0_4211_8844">
<rect width="98.61" height="98.62" fill="white"/>
</clipPath>
</defs>
</svg>
