<svg width="144" height="144" viewBox="0 0 144 144" fill="none" xmlns="http://www.w3.org/2000/svg">
<g clip-path="url(#clip0_4211_8972)">
<path d="M141.91 143.33H46.5899C45.8099 143.33 45.1699 142.69 45.1699 141.91V46.5999C45.1699 45.8199 45.8099 45.1799 46.5899 45.1799H141.91C142.69 45.1799 143.33 45.8199 143.33 46.5999V141.92C143.33 142.7 142.69 143.34 141.91 143.34V143.33ZM48.0099 140.5H140.49V48.0099H48.0099V140.49V140.5Z" fill="white"/>
<path d="M96.74 98.16H1.42C0.64 98.16 0 97.52 0 96.74V1.42C0 0.64 0.64 0 1.42 0H96.74C97.52 0 98.16 0.64 98.16 1.42V96.74C98.16 97.52 97.52 98.16 96.74 98.16ZM2.84 95.32H95.32V2.84H2.84V95.32Z" fill="white"/>
<path d="M141.91 48.0101C141.55 48.0101 141.18 47.8701 140.91 47.5901L95.7299 2.42006C95.1799 1.87006 95.1799 0.970059 95.7299 0.410059C96.2799 -0.139941 97.1799 -0.139941 97.7399 0.410059L142.92 45.5901C143.47 46.1401 143.47 47.0401 142.92 47.6001C142.64 47.8801 142.28 48.0201 141.92 48.0201L141.91 48.0101Z" fill="white"/>
<path d="M46.59 48.01C46.23 48.01 45.86 47.87 45.59 47.59L0.42 2.42C-0.14 1.87 -0.14 0.97 0.42 0.42C0.97 -0.14 1.87 -0.14 2.42 0.42L47.6 45.6C48.15 46.15 48.15 47.05 47.6 47.61C47.32 47.89 46.96 48.03 46.6 48.03L46.59 48.01Z" fill="white"/>
<path d="M46.5898 143.33C46.2298 143.33 45.8598 143.19 45.5898 142.91L0.419824 97.74C-0.130176 97.19 -0.130176 96.29 0.419824 95.73C0.969824 95.17 1.86982 95.18 2.42982 95.73L47.6098 140.91C48.1598 141.46 48.1598 142.36 47.6098 142.92C47.3298 143.2 46.9698 143.34 46.6098 143.34L46.5898 143.33Z" fill="white"/>
<path d="M141.91 143.33C141.55 143.33 141.18 143.19 140.91 142.91L95.7299 97.7301C95.1799 97.1801 95.1799 96.2801 95.7299 95.7201C96.2799 95.1701 97.1799 95.1701 97.7399 95.7201L142.92 140.9C143.47 141.45 143.47 142.35 142.92 142.91C142.64 143.19 142.28 143.33 141.92 143.33H141.91Z" fill="white"/>
</g>
<defs>
<clipPath id="clip0_4211_8972">
<rect width="143.33" height="143.33" fill="white"/>
</clipPath>
</defs>
</svg>
