<svg width="182" height="57" viewBox="0 0 182 57" fill="none" xmlns="http://www.w3.org/2000/svg">
<path d="M14.1564 14.8684C14.9918 9.72219 11.4971 4.87318 6.35091 4.03783C1.2047 3.20248 -3.64431 6.69713 -4.47966 11.8433C-5.315 16.9895 -1.82036 21.8386 3.32585 22.6739C8.47206 23.5093 13.3211 20.0146 14.1564 14.8684Z" fill="#FCFFFF"/>
<path d="M52.8612 20.0313C56.5478 16.3447 56.5477 10.3677 52.8612 6.68111C49.1746 2.99456 43.1976 2.99456 39.511 6.68111C35.8245 10.3677 35.8245 16.3447 39.511 20.0313C43.1976 23.7178 49.1747 23.7178 52.8612 20.0313Z" fill="#FCFFFF"/>
<path d="M94.2269 20.0252C97.9135 16.3386 97.9135 10.3616 94.2269 6.67501C90.5404 2.98846 84.5633 2.98846 80.8767 6.67501C77.1902 10.3616 77.1902 16.3386 80.8767 20.0252C84.5633 23.7117 90.5404 23.7117 94.2269 20.0252Z" fill="#FCFFFF"/>
<path d="M135.576 20.0264C139.263 16.3399 139.263 10.3628 135.576 6.67622C131.889 2.98967 125.912 2.98968 122.226 6.67623C118.539 10.3628 118.539 16.3399 122.226 20.0264C125.912 23.713 131.889 23.713 135.576 20.0264Z" fill="#FCFFFF"/>
<path d="M179.433 15.5102C180.631 10.436 177.488 5.35179 172.414 4.15418C167.34 2.95657 162.256 6.09912 161.058 11.1733C159.861 16.2474 163.003 21.3317 168.077 22.5293C173.151 23.7269 178.236 20.5843 179.433 15.5102Z" fill="#FCFFFF"/>
<path d="M14.1486 44.8867C14.984 39.7405 11.4893 34.8915 6.3431 34.0561C1.19689 33.2208 -3.65212 36.7154 -4.48747 41.8616C-5.32282 47.0079 -1.82817 51.8569 3.31804 52.6922C8.46425 53.5276 13.3133 50.0329 14.1486 44.8867Z" fill="#FCFFFF"/>
<path d="M52.8612 50.0415C56.5478 46.355 56.5478 40.3779 52.8612 36.6914C49.1747 33.0048 43.1976 33.0048 39.511 36.6914C35.8245 40.3779 35.8245 46.355 39.511 50.0415C43.1976 53.7281 49.1747 53.7281 52.8612 50.0415Z" fill="#FCFFFF"/>
<path d="M94.2172 50.0354C97.9037 46.3489 97.9037 40.3718 94.2172 36.6853C90.5306 32.9987 84.5535 32.9987 80.867 36.6853C77.1804 40.3718 77.1804 46.3489 80.867 50.0354C84.5535 53.722 90.5306 53.722 94.2172 50.0354Z" fill="#FCFFFF"/>
<path d="M135.566 50.0367C139.253 46.3501 139.253 40.373 135.566 36.6865C131.88 32.9999 125.903 32.9999 122.216 36.6865C118.53 40.373 118.53 46.3501 122.216 50.0367C125.903 53.7232 131.88 53.7232 135.566 50.0367Z" fill="#FCFFFF"/>
<path d="M179.421 45.5236C180.618 40.4495 177.476 35.3652 172.401 34.1676C167.327 32.97 162.243 36.1125 161.045 41.1867C159.848 46.2609 162.99 51.3451 168.065 52.5427C173.139 53.7403 178.223 50.5978 179.421 45.5236Z" fill="#FCFFFF"/>
</svg>
