<svg width="58" height="58" viewBox="0 0 58 58" fill="none" xmlns="http://www.w3.org/2000/svg">
<g clip-path="url(#clip0_4211_8989)">
<path d="M28.6502 57.3C27.0102 57.3 25.6802 55.97 25.6802 54.33V2.97C25.6802 1.33 27.0102 0 28.6502 0C30.2902 0 31.6202 1.33 31.6202 2.97V54.33C31.6202 55.97 30.2902 57.3 28.6502 57.3Z" fill="#FBF239"/>
<path d="M54.33 31.6199H2.97C1.33 31.6199 0 30.2899 0 28.6499C0 27.0099 1.33 25.6799 2.97 25.6799H54.33C55.97 25.6799 57.3 27.0099 57.3 28.6499C57.3 30.2899 55.97 31.6199 54.33 31.6199Z" fill="#FBF239"/>
</g>
<defs>
<clipPath id="clip0_4211_8989">
<rect width="57.3" height="57.3" fill="white"/>
</clipPath>
</defs>
</svg>
