<svg width="205" height="29" viewBox="0 0 205 29" fill="none" xmlns="http://www.w3.org/2000/svg">
<g clip-path="url(#clip0_4211_8981)">
<path d="M23.41 14.04C23.41 8.88 19.21 4.68 14.05 4.68C8.89 4.68 4.68 8.88 4.68 14.04C4.68 19.2 8.88 23.4 14.04 23.4C19.2 23.4 23.4 19.2 23.4 14.04H23.41ZM0 14.04C0 6.3 6.3 0 14.04 0C21.78 0 28.08 6.3 28.08 14.04C28.08 21.78 21.78 28.08 14.04 28.08C6.3 28.08 0 21.79 0 14.04Z" fill="#FBF239"/>
<path d="M67.4901 14.04C67.4901 8.88 63.2901 4.68 58.1301 4.68C52.9701 4.68 48.7701 8.88 48.7701 14.04C48.7701 19.2 52.9701 23.4 58.1301 23.4C63.2901 23.4 67.4901 19.2 67.4901 14.04ZM44.0801 14.04C44.0801 6.3 50.3801 0 58.1301 0C65.8801 0 72.1701 6.3 72.1701 14.04C72.1701 21.78 65.8701 28.08 58.1301 28.08C50.3901 28.08 44.0901 21.78 44.0901 14.04H44.0801Z" fill="#FBF239"/>
<path d="M111.57 14.04C111.57 8.88 107.37 4.68 102.21 4.68C97.0502 4.68 92.8502 8.88 92.8502 14.04C92.8502 19.2 97.0502 23.4 102.21 23.4C107.37 23.4 111.57 19.2 111.57 14.04ZM88.1602 14.04C88.1602 6.3 94.4602 0 102.21 0C109.96 0 116.25 6.3 116.25 14.04C116.25 21.78 109.95 28.08 102.21 28.08C94.4702 28.08 88.1702 21.78 88.1702 14.04H88.1602Z" fill="#FBF239"/>
<path d="M155.65 14.04C155.65 8.88 151.45 4.68 146.29 4.68C141.13 4.68 136.93 8.88 136.93 14.04C136.93 19.2 141.13 23.4 146.29 23.4C151.45 23.4 155.65 19.2 155.65 14.04ZM132.25 14.04C132.25 6.3 138.55 0 146.29 0C154.03 0 160.33 6.3 160.33 14.04C160.33 21.78 154.03 28.08 146.29 28.08C138.55 28.08 132.25 21.78 132.25 14.04Z" fill="#FBF239"/>
<path d="M199.73 14.04C199.73 8.88 195.53 4.68 190.37 4.68C185.21 4.68 181.01 8.88 181.01 14.04C181.01 19.2 185.21 23.4 190.37 23.4C195.53 23.4 199.73 19.2 199.73 14.04ZM176.33 14.04C176.33 6.3 182.63 0 190.37 0C198.11 0 204.41 6.3 204.41 14.04C204.41 21.78 198.11 28.08 190.37 28.08C182.63 28.08 176.33 21.78 176.33 14.04Z" fill="#FBF239"/>
</g>
<defs>
<clipPath id="clip0_4211_8981">
<rect width="204.42" height="28.09" fill="white"/>
</clipPath>
</defs>
</svg>
