<svg width="465" height="126" viewBox="0 0 465 126" fill="none" xmlns="http://www.w3.org/2000/svg">
<path d="M141.005 50.9V57.75H131.705V86H123.155V57.75H113.855V50.9H141.005ZM172.846 58.1V86H164.296V82.2C163.429 83.4333 162.246 84.4333 160.746 85.2C159.279 85.9333 157.646 86.3 155.846 86.3C153.712 86.3 151.829 85.8333 150.196 84.9C148.562 83.9333 147.296 82.55 146.396 80.75C145.496 78.95 145.046 76.8333 145.046 74.4V58.1H153.546V73.25C153.546 75.1167 154.029 76.5667 154.996 77.6C155.962 78.6333 157.262 79.15 158.896 79.15C160.562 79.15 161.879 78.6333 162.846 77.6C163.812 76.5667 164.296 75.1167 164.296 73.25V58.1H172.846ZM194.537 78.75V86H190.187C187.087 86 184.671 85.25 182.937 83.75C181.204 82.2167 180.337 79.7333 180.337 76.3V65.2H176.937V58.1H180.337V51.3H188.887V58.1H194.487V65.2H188.887V76.4C188.887 77.2333 189.087 77.8333 189.487 78.2C189.887 78.5667 190.554 78.75 191.487 78.75H194.537ZM212 86.4C209.266 86.4 206.8 85.8167 204.6 84.65C202.433 83.4833 200.716 81.8167 199.45 79.65C198.216 77.4833 197.6 74.95 197.6 72.05C197.6 69.1833 198.233 66.6667 199.5 64.5C200.766 62.3 202.5 60.6167 204.7 59.45C206.9 58.2833 209.366 57.7 212.1 57.7C214.833 57.7 217.3 58.2833 219.5 59.45C221.7 60.6167 223.433 62.3 224.7 64.5C225.966 66.6667 226.6 69.1833 226.6 72.05C226.6 74.9167 225.95 77.45 224.65 79.65C223.383 81.8167 221.633 83.4833 219.4 84.65C217.2 85.8167 214.733 86.4 212 86.4ZM212 79C213.633 79 215.016 78.4 216.15 77.2C217.316 76 217.9 74.2833 217.9 72.05C217.9 69.8167 217.333 68.1 216.2 66.9C215.1 65.7 213.733 65.1 212.1 65.1C210.433 65.1 209.05 65.7 207.95 66.9C206.85 68.0667 206.3 69.7833 206.3 72.05C206.3 74.2833 206.833 76 207.9 77.2C209 78.4 210.366 79 212 79ZM239.686 62.75C240.686 61.2167 241.936 60.0167 243.436 59.15C244.936 58.25 246.602 57.8 248.436 57.8V66.85H246.086C243.952 66.85 242.352 67.3167 241.286 68.25C240.219 69.15 239.686 70.75 239.686 73.05V86H231.136V58.1H239.686V62.75ZM288.368 50.9V57.75H279.068V86H270.518V57.75H261.218V50.9H288.368ZM305.359 86.4C302.626 86.4 300.159 85.8167 297.959 84.65C295.792 83.4833 294.076 81.8167 292.809 79.65C291.576 77.4833 290.959 74.95 290.959 72.05C290.959 69.1833 291.592 66.6667 292.859 64.5C294.126 62.3 295.859 60.6167 298.059 59.45C300.259 58.2833 302.726 57.7 305.459 57.7C308.192 57.7 310.659 58.2833 312.859 59.45C315.059 60.6167 316.792 62.3 318.059 64.5C319.326 66.6667 319.959 69.1833 319.959 72.05C319.959 74.9167 319.309 77.45 318.009 79.65C316.742 81.8167 314.992 83.4833 312.759 84.65C310.559 85.8167 308.092 86.4 305.359 86.4ZM305.359 79C306.992 79 308.376 78.4 309.509 77.2C310.676 76 311.259 74.2833 311.259 72.05C311.259 69.8167 310.692 68.1 309.559 66.9C308.459 65.7 307.092 65.1 305.459 65.1C303.792 65.1 302.409 65.7 301.309 66.9C300.209 68.0667 299.659 69.7833 299.659 72.05C299.659 74.2833 300.192 76 301.259 77.2C302.359 78.4 303.726 79 305.359 79ZM322.795 72C322.795 69.1333 323.328 66.6167 324.395 64.45C325.495 62.2833 326.978 60.6167 328.845 59.45C330.712 58.2833 332.795 57.7 335.095 57.7C336.928 57.7 338.595 58.0833 340.095 58.85C341.628 59.6167 342.828 60.65 343.695 61.95V49H352.245V86H343.695V82C342.895 83.3333 341.745 84.4 340.245 85.2C338.778 86 337.062 86.4 335.095 86.4C332.795 86.4 330.712 85.8167 328.845 84.65C326.978 83.45 325.495 81.7667 324.395 79.6C323.328 77.4 322.795 74.8667 322.795 72ZM343.695 72.05C343.695 69.9167 343.095 68.2333 341.895 67C340.728 65.7667 339.295 65.15 337.595 65.15C335.895 65.15 334.445 65.7667 333.245 67C332.078 68.2 331.495 69.8667 331.495 72C331.495 74.1333 332.078 75.8333 333.245 77.1C334.445 78.3333 335.895 78.95 337.595 78.95C339.295 78.95 340.728 78.3333 341.895 77.1C343.095 75.8667 343.695 74.1833 343.695 72.05ZM356.731 72C356.731 69.1333 357.264 66.6167 358.331 64.45C359.431 62.2833 360.914 60.6167 362.781 59.45C364.647 58.2833 366.731 57.7 369.031 57.7C370.997 57.7 372.714 58.1 374.181 58.9C375.681 59.7 376.831 60.75 377.631 62.05V58.1H386.181V86H377.631V82.05C376.797 83.35 375.631 84.4 374.131 85.2C372.664 86 370.947 86.4 368.981 86.4C366.714 86.4 364.647 85.8167 362.781 84.65C360.914 83.45 359.431 81.7667 358.331 79.6C357.264 77.4 356.731 74.8667 356.731 72ZM377.631 72.05C377.631 69.9167 377.031 68.2333 375.831 67C374.664 65.7667 373.231 65.15 371.531 65.15C369.831 65.15 368.381 65.7667 367.181 67C366.014 68.2 365.431 69.8667 365.431 72C365.431 74.1333 366.014 75.8333 367.181 77.1C368.381 78.3333 369.831 78.95 371.531 78.95C373.231 78.95 374.664 78.3333 375.831 77.1C377.031 75.8667 377.631 74.1833 377.631 72.05ZM420.866 58.1L403.366 99.25H394.166L400.566 85.05L389.216 58.1H398.766L405.216 75.55L411.616 58.1H420.866Z" fill="#2258BF"/>
<rect x="26.4512" y="26.4502" width="73.0979" height="73.0979" rx="36.549" fill="#2258BF"/>
<mask id="mask0_4211_8813" style="mask-type:alpha" maskUnits="userSpaceOnUse" x="26" y="26" width="74" height="74">
<rect x="26.4512" y="26.4512" width="73.0979" height="73.0979" rx="36.549" fill="#2258BF"/>
</mask>
<g mask="url(#mask0_4211_8813)">
<path d="M88.9468 19.2679C88.8847 18.9631 88.5321 18.728 88.0419 18.6626L73.7955 16.7597L84.4769 7.44064C84.7355 7.21771 84.8114 6.94499 84.6831 6.70768C84.5523 6.46996 84.2368 6.29739 83.8306 6.24313L68.5937 4.20797C68.0478 4.13505 67.4455 4.28833 67.097 4.58734L46.7451 22.1951C46.4865 22.4181 46.4097 22.6924 46.5406 22.9301C46.6656 23.1687 46.9835 23.3416 47.3924 23.3962L55.7879 24.5175L36.5511 41.1597C36.1645 41.4943 36.2001 41.9242 36.6373 42.1791C36.7946 42.2713 36.9876 42.3326 37.1984 42.3607C37.5666 42.4099 37.9841 42.3573 38.334 42.2025L88.3281 20.0847C88.7662 19.8925 89.008 19.5742 88.9468 19.2679Z" fill="#FFC42C"/>
<path d="M85.1158 15.5293C85.0536 15.2246 84.701 14.9895 84.2109 14.924L69.9644 13.0212L80.6459 3.70211C80.9045 3.47918 80.9803 3.20646 80.8521 2.96916C80.7212 2.73143 80.4057 2.55886 79.9995 2.5046L64.7627 0.469449C64.2167 0.396526 63.6144 0.549809 63.2659 0.84881L42.914 18.4566C42.6555 18.6796 42.5787 18.9539 42.7096 19.1915C42.8345 19.4301 43.1525 19.603 43.5613 19.6576L51.9568 20.779L32.72 37.4212C32.3334 37.7557 32.369 38.1857 32.8063 38.4406C32.9635 38.5327 33.1565 38.5941 33.3673 38.6222C33.7356 38.6714 34.153 38.6187 34.503 38.4639L84.497 16.3461C84.9351 16.154 85.1769 15.8357 85.1158 15.5293Z" fill="white"/>
</g>
</svg>
