<svg width="47" height="65" viewBox="0 0 47 65" fill="none" xmlns="http://www.w3.org/2000/svg">
<path d="M23.2946 64.2858C21.9173 64.2858 20.6723 63.9552 19.5598 63.2941C18.4473 62.6308 17.5732 61.7429 16.9375 60.6304C15.1893 60.6304 13.6932 60.0085 12.4494 58.7646C11.2034 57.5186 10.5804 56.0215 10.5804 54.2733V42.9894C7.45476 40.9233 4.95217 38.195 3.07257 34.8045C1.19086 31.4141 0.25 27.7322 0.25 23.759C0.25 17.3489 2.48771 11.905 6.96314 7.4275C11.4407 2.95207 16.8845 0.714355 23.2946 0.714355C29.7048 0.714355 35.1475 2.95207 39.623 7.4275C44.1005 11.905 46.3393 17.3489 46.3393 23.759C46.3393 27.8382 45.3995 31.5465 43.5199 34.884C41.6382 38.2215 39.1345 40.9233 36.0089 42.9894V54.2733C36.0089 56.0215 35.387 57.5186 34.1431 58.7646C32.8971 60.0085 31.4 60.6304 29.6518 60.6304C29.0161 61.7429 28.142 62.6308 27.0295 63.2941C25.917 63.9552 24.672 64.2858 23.2946 64.2858ZM16.9375 54.2733H29.6518V51.4126H16.9375V54.2733ZM16.9375 48.234H29.6518V45.2144H16.9375V48.234ZM16.3018 38.8572H20.9107V30.2751L13.9179 23.2822L17.2554 19.9447L23.2946 25.984L29.3339 19.9447L32.6714 23.2822L25.6786 30.2751V38.8572H30.2875C33.1482 37.4798 35.4792 35.453 37.2804 32.7766C39.0815 30.1024 39.9821 27.0965 39.9821 23.759C39.9821 19.0971 38.3664 15.1504 35.1348 11.9188C31.9033 8.68727 27.9565 7.0715 23.2946 7.0715C18.6327 7.0715 14.686 8.68727 11.4545 11.9188C8.22292 15.1504 6.60714 19.0971 6.60714 23.759C6.60714 27.0965 7.50774 30.1024 9.30893 32.7766C11.1101 35.453 13.4411 37.4798 16.3018 38.8572Z" fill="#FBF239"/>
</svg>
